<svg xmlns="http://www.w3.org/2000/svg" viewBox="0 0 256 256" fill="#1C2833" id="Door-Open--Streamline-Phosphor">
  <desc>
    Door Open Streamline Icon: https://streamlinehq.com
  </desc>
  <path d="M244.48 226.56H217.6V29.44c0 -9.8969 -8.0231 -17.92 -17.92 -17.92H56.32c-9.8969 0 -17.92 8.0231 -17.92 17.92v197.12H11.52c-6.8974 0 -11.2083 7.4667 -7.7596 13.44 1.6006 2.7722 4.5585 4.48 7.7596 4.48h232.96c6.8974 0 11.2083 -7.4667 7.7596 -13.44 -1.6006 -2.7722 -4.5585 -4.48 -7.7596 -4.48Zm-44.8 0h-17.92V29.44h17.92ZM56.32 29.44h107.52v197.12H56.32Zm89.6 103.04c0 10.3461 -11.2 16.8124 -20.16 11.6394 -8.96 -5.1731 -8.96 -18.1057 0 -23.2788 2.0433 -1.1797 4.3606 -1.8007 6.72 -1.8006 7.4225 0.0003 13.44 6.0175 13.44 13.44Z" stroke-width="1"></path>
</svg>