<svg viewBox="0 0 24 24" fill="none" xmlns="http://www.w3.org/2000/svg" id="Logout-2--Streamline-Solar">
  <desc>
    Logout 2 Streamline Icon: https://streamlinehq.com
  </desc>
  <path fill-rule="evenodd" clip-rule="evenodd" d="M16.125 12c0 -0.4142 -0.3358 -0.75 -0.75 -0.75l-10.97256 0 1.96065 -1.68056c0.3145 -0.26956 0.35092 -0.74304 0.08135 -1.05753 -0.26956 -0.3145 -0.74304 -0.35092 -1.05753 -0.08135l-3.5 3.00004c-0.16624 0.1424 -0.26191 0.3505 -0.26191 0.5694 0 0.2189 0.09567 0.427 0.26191 0.5694l3.5 3c0.31449 0.2696 0.78797 0.2332 1.05753 -0.0813 0.26957 -0.3145 0.23315 -0.788 -0.08135 -1.0575L4.40244 12.75l10.97256 0c0.4142 0 0.75 -0.3358 0.75 -0.75Z" fill="#1C2833" stroke-width="1"></path>
  <path d="M9.375 8c0 0.70219 0 1.05329 0.16851 1.3055 0.07297 0.10921 0.16674 0.20298 0.27595 0.27595 0.25224 0.16851 0.60334 0.16851 1.30554 0.16851l4.25 0c1.2426 0 2.25 1.00734 2.25 2.25004 0 1.2426 -1.0074 2.25 -2.25 2.25l-4.25 0c-0.7022 0 -1.0534 0 -1.3056 0.1685 -0.10917 0.073 -0.2029 0.1667 -0.27585 0.2759C9.375 14.9466 9.375 15.2977 9.375 16c0 2.8284 0 4.2426 0.8787 5.1213C11.1324 22 12.5464 22 15.3748 22l1 0c2.8284 0 4.2426 0 5.1213 -0.8787 0.8787 -0.8787 0.8787 -2.2929 0.8787 -5.1213l0 -8c0 -2.82842 0 -4.24264 -0.8787 -5.12132C20.6174 2 19.2032 2 16.3748 2l-1 0c-2.8284 0 -4.2424 0 -5.1211 0.87868C9.375 3.75736 9.375 5.17157 9.375 8Z" fill="#1C2833" stroke-width="1"></path>
</svg>