<svg viewBox="0 0 15 15" fill="none" xmlns="http://www.w3.org/2000/svg" id="Exit--Streamline-Radix">
  <desc>
    Exit Streamline Icon: https://streamlinehq.com
  </desc>
  <path fill-rule="evenodd" clip-rule="evenodd" d="M3 1c-0.55229 0 -1 0.44772 -1 1v11c0 0.5523 0.44772 1 1 1h7.5c0.2761 0 0.5 -0.2239 0.5 -0.5s-0.2239 -0.5 -0.5 -0.5H3V2l7.5 0c0.2761 0 0.5 -0.22386 0.5 -0.5s-0.2239 -0.5 -0.5 -0.5H3Zm9.6036 3.89645c-0.1953 -0.19527 -0.5119 -0.19527 -0.7072 0 -0.1952 0.19526 -0.1952 0.51184 0 0.7071L13.2929 7H6.5c-0.27614 0 -0.5 0.22386 -0.5 0.5s0.22386 0.5 0.5 0.5h6.7929l-1.3965 1.39645c-0.1952 0.19526 -0.1952 0.51184 0 0.70715 0.1953 0.1952 0.5119 0.1952 0.7072 0l2.25 -2.25005c0.1952 -0.19526 0.1952 -0.51184 0 -0.7071l-2.25 -2.25Z" fill="#E74C3C" stroke-width="1"></path>
</svg>