<svg xmlns="http://www.w3.org/2000/svg" fill="none" viewBox="0 0 48 48" id="Bulb--Streamline-Ionic-Filled">
  <desc>
    Bulb Streamline Icon: https://streamlinehq.com
  </desc>
  <path fill="#3498DB" d="M27.0003 43.498h-5.9995c-0.3977 0 -0.7792 0.1581 -1.0605 0.4393 -0.2813 0.2813 -0.4393 0.6629 -0.4393 1.0606 0 0.3978 0.158 0.7793 0.4393 1.0606 0.2813 0.2812 0.6628 0.4393 1.0605 0.4393h5.9995c0.3978 0 0.7793 -0.1581 1.0606 -0.4393 0.2812 -0.2813 0.4393 -0.6628 0.4393 -1.0606 0 -0.3977 -0.1581 -0.7793 -0.4393 -1.0606 -0.2813 -0.2812 -0.6628 -0.4393 -1.0606 -0.4393Z" stroke-width="1"></path>
  <path fill="#3498DB" d="M28.4984 38.998h-8.9986c-0.3977 0 -0.7793 0.1581 -1.0606 0.4393 -0.2812 0.2813 -0.4392 0.6628 -0.4392 1.0605 0 0.3977 0.158 0.7792 0.4392 1.0605 0.2813 0.2813 0.6629 0.4393 1.0606 0.4393h8.9986c0.3977 0 0.7792 -0.158 1.0605 -0.4393 0.2812 -0.2813 0.4393 -0.6628 0.4393 -1.0605 0 -0.3977 -0.1581 -0.7792 -0.4393 -1.0605 -0.2813 -0.2812 -0.6628 -0.4393 -1.0605 -0.4393Z" stroke-width="1"></path>
  <path fill="#3498DB" d="M34.6328 5.87619c-2.819 -2.82277 -6.5952 -4.37712 -10.633 -4.37712 -1.9711 -0.00471 -3.9237 0.38007 -5.7457 1.13222 -1.822 0.75214 -3.4774 1.85684 -4.8712 3.25063 -1.3938 1.3938 -2.4985 3.04923 -3.2506 4.87118 -0.75215 1.8221 -1.13696 3.7747 -1.13226 5.7457 0 4.3706 1.67526 8.459 4.59366 11.2161l0.4087 0.3835c1.6884 1.5787 3.9975 3.7415 3.9975 5.6502v2.25c0 0.3978 0.158 0.7794 0.4394 1.0606 0.2812 0.2814 0.6628 0.4393 1.0606 0.4393h2.2499c0.199 0 0.3897 -0.0789 0.5304 -0.2196 0.1407 -0.1406 0.2196 -0.3314 0.2196 -0.5303V25.7631c0.0001 -0.1516 -0.0458 -0.2997 -0.1317 -0.4248s-0.2076 -0.2211 -0.3492 -0.2755c-0.8662 -0.3534 -1.689 -0.8048 -2.4525 -1.3453 -0.1715 -0.1095 -0.319 -0.2529 -0.4334 -0.4212 -0.1144 -0.1684 -0.1933 -0.3583 -0.2319 -0.5582 -0.0387 -0.1999 -0.0362 -0.4055 0.0071 -0.6044 0.0434 -0.1989 0.1268 -0.3869 0.2452 -0.5525 0.1184 -0.1656 0.2691 -0.3054 0.4433 -0.4109 0.1741 -0.1054 0.3679 -0.1744 0.5694 -0.2026 0.2017 -0.0281 0.4069 -0.015 0.6032 0.0387 0.1964 0.0538 0.3798 0.1469 0.539 0.2736 0.6937 0.4912 2.0296 1.2187 2.6915 1.2187 0.6619 0 1.9978 -0.7293 2.6934 -1.2187 0.3239 -0.2036 0.7134 -0.2757 1.0887 -0.2016 0.3754 0.074 0.7083 0.2886 0.9306 0.6 0.2222 0.3114 0.3171 0.6959 0.2652 1.0751 -0.0519 0.379 -0.2467 0.7239 -0.5445 0.964 -0.7636 0.5396 -1.5864 0.9901 -2.4525 1.3425 -0.1416 0.0544 -0.2632 0.1504 -0.3491 0.2755 -0.0859 0.125 -0.1318 0.2732 -0.1318 0.4248v10.9883c0 0.1989 0.079 0.3897 0.2197 0.5303 0.1406 0.1407 0.3314 0.2196 0.5303 0.2196h2.2499c0.3979 0 0.7795 -0.1579 1.0607 -0.4393 0.2813 -0.2812 0.4393 -0.6628 0.4393 -1.0606v-2.25c0 -1.8637 2.2837 -4.0246 3.9515 -5.6034l0.4603 -0.4368c3.0019 -2.8659 4.5881 -6.7462 4.5881 -11.2096 0.0099 -1.9712 -0.3709 -3.925 -1.1204 -5.7483 -0.7495 -1.82325 -1.8528 -3.47993 -3.2464 -4.87431Z" stroke-width="1"></path>
</svg>