<svg xmlns="http://www.w3.org/2000/svg" fill="none" viewBox="0 0 48 48" id="Team-Dashboard--Streamline-Rounded-Material">
  <desc>
    Team Dashboard Streamline Icon: https://streamlinehq.com
  </desc>
  <path fill="#1C2833" d="M9 42c-0.825 0 -1.53117 -0.2938 -2.1185 -0.8815C6.29383 40.5312 6 39.825 6 39V9c0 -0.825 0.29383 -1.53133 0.8815 -2.119C7.46883 6.29367 8.175 6 9 6h30c0.825 0 1.5313 0.29367 2.119 0.881C41.7063 7.46867 42 8.175 42 9v30c0 0.825 -0.2937 1.5312 -0.881 2.1185C40.5313 41.7062 39.825 42 39 42H9Zm11.5 -3V25.5H9V39h11.5Zm3 0H39V25.5H23.5V39ZM9 22.5h30V9H9v13.5Z" stroke-width="1"></path>
</svg>