<svg viewBox="0 0 24 24" fill="none" xmlns="http://www.w3.org/2000/svg" id="Refresh--Streamline-Unicons-Thinline">
  <desc>
    Refresh Streamline Icon: https://streamlinehq.com
  </desc>
  <path d="M20.5 16h-4c-0.2761 0 -0.5 0.2239 -0.5 0.5s0.2239 0.5 0.5 0.5h2.976c-1.6599 2.4747 -4.441 3.9971 -7.4585 4 -4.97545 0.0048 -9.01268 -4.0246 -9.0175 -9 -0.00043 -0.4752 0.03748 -0.9498 0.11334 -1.4189 0.04474 -0.2724 -0.13977 -0.5295 -0.41211 -0.5742 -0.2724 -0.0448 -0.52948 0.1397 -0.57421 0.4121C2.04224 10.9417 1.99976 11.4705 2 12c0.00647 5.5201 4.47986 9.9935 10 10 3.1759 0.0013 6.1254 -1.5065 8 -3.9986v2.4991c0.0002 0.276 0.224 0.4997 0.5 0.4995 0.2759 -0.0002 0.5002 -0.224 0.5 -0.5v-4.0006c-0.0002 -0.276 -0.224 -0.4996 -0.5 -0.4994ZM16.7373 3.19647C12.3202 0.817749 6.92078 2.10724 4 6.00293V3.5c0 -0.27612 -0.22388 -0.5 -0.5 -0.5 -0.27612 0 -0.5 0.22388 -0.5 0.5v4.00061c0.00018 0.27594 0.224 0.49957 0.5 0.49939h4c0.27612 0 0.5 -0.22388 0.5 -0.5 0 -0.27612 -0.22388 -0.5 -0.5 -0.5H4.52399C6.1839 4.52533 8.96503 3.00287 11.9825 3c4.9754 -0.00482 9.0127 4.0246 9.0175 9 0.0004 0.4753 -0.0374 0.9498 -0.1132 1.4189 -0.0002 0.0008 -0.0003 0.0016 -0.0004 0.0024 -0.0441 0.2718 0.1406 0.5279 0.4125 0.5719 0.027 0.0047 0.0545 0.0069 0.082 0.0068 0.2445 -0.0004 0.4527 -0.1777 0.4921 -0.419 0.0848 -0.5227 0.1272 -1.0515 0.127 -1.581 -0.0029 -3.67871 -2.0238 -7.05927 -5.2627 -8.80353ZM15 12c0 -1.6569 -1.3431 -3 -3 -3s-3 1.3431 -3 3 1.3431 3 3 3c1.6561 -0.0018 2.9982 -1.3439 3 -3Zm-5 0c0 -1.1046 0.8954 -2 2 -2 1.104 0.0014 1.9986 0.896 2 2 0 1.1046 -0.8954 2 -2 2s-2 -0.8954 -2 -2Z" fill="#1C2833" stroke-width="1"></path>
</svg>