<svg xmlns="http://www.w3.org/2000/svg" viewBox="0 0 24 24" fill="none" stroke="#1C2833" stroke-linecap="round" stroke-linejoin="round" id="Exchange--Streamline-Tabler">
  <desc>
    Exchange Streamline Icon: https://streamlinehq.com
  </desc>
  <path d="M3 18a2 2 0 1 0 4 0 2 2 0 1 0 -4 0" stroke-width="1"></path>
  <path d="M17 6a2 2 0 1 0 4 0 2 2 0 1 0 -4 0" stroke-width="1"></path>
  <path d="M19 8v5a5 5 0 0 1 -5 5h-3l3 -3m0 6 -3 -3" stroke-width="1"></path>
  <path d="M5 16v-5a5 5 0 0 1 5 -5h3l-3 -3m0 6 3 -3" stroke-width="1"></path>
</svg>