<svg xmlns="http://www.w3.org/2000/svg" viewBox="0 0 256 256" fill="#1C2833" id="Swap--Streamline-Phosphor">
  <desc>
    Swap Streamline Icon: https://streamlinehq.com
  </desc>
  <path d="M253.44 23.4667V159.36c0 11.5468 -9.3599 20.9072 -20.9067 20.9067H90.5117l13.524 13.5109c5.6933 5.6932 3.0884 15.4146 -4.6887 17.4985 -3.6093 0.9671 -7.4605 -0.0648 -10.1027 -2.707l-31.36 -31.36c-4.0878 -4.0833 -4.0878 -10.7083 0 -14.7915l31.36 -31.36c5.6932 -5.6932 15.4146 -3.0884 17.4985 4.6887 0.9671 3.6094 -0.0648 7.4605 -2.7071 10.1028L90.5117 159.36h142.0216V23.4667H86.1867V33.92c0 8.047 -8.7111 13.0763 -15.68 9.0529 -3.2343 -1.8674 -5.2267 -5.3183 -5.2267 -9.0529V23.4667c0 -11.5468 9.3599 -20.9072 20.9067 -20.9067h146.3466c11.5468 -0.0005 20.9067 9.3599 20.9067 20.9067Zm-73.1733 188.16c-5.7732 0 -10.4534 4.6801 -10.4534 10.4533v10.4533H23.4667V96.64h142.0216l-13.524 13.5109c-5.6933 5.6933 -3.0884 15.4147 4.6887 17.4985 3.6093 0.9672 7.4605 -0.0648 10.1027 -2.707l31.36 -31.36c4.0878 -4.0832 4.0878 -10.7083 0 -14.7915l-31.36 -31.36c-5.6932 -5.6932 -15.4146 -3.0884 -17.4985 4.6887 -0.9671 3.6094 0.0648 7.4606 2.7071 10.1028l13.524 13.5109H23.4667C11.9199 75.7328 2.56 85.0932 2.56 96.64v135.8933c0 11.5468 9.3599 20.9072 20.9067 20.9067h146.3466c11.5461 -0.0005 20.9067 -9.3606 20.9067 -20.9067V222.08c0 -5.7732 -4.6801 -10.4533 -10.4533 -10.4533Z" stroke-width="1"></path>
</svg>