<svg xmlns="http://www.w3.org/2000/svg" viewBox="0 0 384 384" id="Bolt-Lightning--Streamline-Font-Awesome">
  <desc>
    Bolt Lightning Streamline Icon: https://streamlinehq.com
  </desc>
<!--! Font Awesome Free 6.5.2 by @fontawesome - https://fontawesome.com License - https://fontawesome.com/license/free (Icons: CC BY 4.0, Fonts: SIL OFL 1.1, Code: MIT License) Copyright 2024 Fonticons, Inc.-->
  <path d="M50.9076 191.9633 71.851 24.416C73.3207 12.6583 83.3147 3.84 95.2194 3.84h123.8968c11.0229 0 19.9146 8.8918 19.9146 19.9146 0 2.3516 -0.4409 4.7766 -1.2492 6.9812l-34.0239 90.6812h102.3655c14.8441 0 26.9692 12.0517 26.9692 26.9693 0 5.4379 -1.6166 10.7289 -4.703 15.2115L187.15 370.0925c-4.3357 6.3197 -11.4638 10.0675 -19.0328 10.0675h-2.1311c-11.5373 0 -20.9434 -9.4062 -20.9434 -20.9434 0 -1.6902 0.2204 -3.3803 0.6614 -5.0705l34.5382 -138.6674H74.423c-13.007 0 -23.5154 -10.5085 -23.5154 -23.5154Z" fill="#3498DB" stroke-width="1"></path>
</svg>