<svg xmlns="http://www.w3.org/2000/svg" fill="none" viewBox="0 0 24 24" id="Vaccine-Protection-Shield--Streamline-Covid">
  <desc>
    Vaccine Protection Shield Streamline Icon: https://streamlinehq.com
  </desc>
  <path stroke="#27AE60" stroke-linecap="round" stroke-linejoin="round" d="M12.125 14.339a3.714 3.714 0 1 0 0 -7.428 3.714 3.714 0 0 0 0 7.428Z" stroke-width="1"></path>
  <path stroke="#27AE60" stroke-linecap="round" stroke-linejoin="round" d="M11.506 4.125h1.238" stroke-width="1"></path>
  <path stroke="#27AE60" stroke-linecap="round" stroke-linejoin="round" d="M12.125 4.125v2.786" stroke-width="1"></path>
  <path stroke="#27AE60" stroke-linecap="round" stroke-linejoin="round" d="m16.283 5.59 0.876 0.877" stroke-width="1"></path>
  <path stroke="#27AE60" stroke-linecap="round" stroke-linejoin="round" d="m16.721 6.029 -1.97 1.97" stroke-width="1"></path>
  <path stroke="#27AE60" stroke-linecap="round" stroke-linejoin="round" d="M18.625 10.006v1.238" stroke-width="1"></path>
  <path stroke="#27AE60" stroke-linecap="round" stroke-linejoin="round" d="M18.625 10.625h-2.786" stroke-width="1"></path>
  <path stroke="#27AE60" stroke-linecap="round" stroke-linejoin="round" d="m17.159 14.783 -0.876 0.876" stroke-width="1"></path>
  <path stroke="#27AE60" stroke-linecap="round" stroke-linejoin="round" d="m16.721 15.221 -1.97 -1.97" stroke-width="1"></path>
  <path stroke="#27AE60" stroke-linecap="round" stroke-linejoin="round" d="M12.744 17.125h-1.238" stroke-width="1"></path>
  <path stroke="#27AE60" stroke-linecap="round" stroke-linejoin="round" d="M12.125 17.125v-2.786" stroke-width="1"></path>
  <path stroke="#27AE60" stroke-linecap="round" stroke-linejoin="round" d="m7.967 15.659 -0.876 -0.876" stroke-width="1"></path>
  <path stroke="#27AE60" stroke-linecap="round" stroke-linejoin="round" d="m7.529 15.221 1.97 -1.97" stroke-width="1"></path>
  <path stroke="#27AE60" stroke-linecap="round" stroke-linejoin="round" d="M5.625 11.244v-1.238" stroke-width="1"></path>
  <path stroke="#27AE60" stroke-linecap="round" stroke-linejoin="round" d="M5.625 10.625h2.786" stroke-width="1"></path>
  <path stroke="#27AE60" stroke-linecap="round" stroke-linejoin="round" d="m7.091 6.467 0.876 -0.876" stroke-width="1"></path>
  <path stroke="#27AE60" stroke-linecap="round" stroke-linejoin="round" d="m7.529 6.029 1.97 1.97" stroke-width="1"></path>
  <path stroke="#27AE60" stroke-linecap="round" stroke-linejoin="round" d="M2.25 3.923v7.614c0 3.723 1.629 8.8 8.673 11.513a3 3 0 0 0 2.154 0c7.041 -2.708 8.673 -7.822 8.673 -11.513V3.923a1.486 1.486 0 0 0 -0.868 -1.362A21.7 21.7 0 0 0 12 0.75a21.7 21.7 0 0 0 -8.882 1.811 1.486 1.486 0 0 0 -0.868 1.362v0Z" stroke-width="1"></path>
</svg>