<svg xmlns="http://www.w3.org/2000/svg" viewBox="0 0 256 256" fill="#27AE60" id="Stamp--Streamline-Phosphor">
  <desc>
    Stamp Streamline Icon: https://streamlinehq.com
  </desc>
  <path d="M239.5022 244.1481c0 5.1318 -4.1601 9.2919 -9.2918 9.2919H25.7896c-7.1528 0 -11.6234 -7.7432 -8.0469 -13.9378 1.6597 -2.8748 4.7274 -4.6458 8.0469 -4.6459h204.4208c5.1317 0 9.2918 4.1601 9.2918 9.2918Zm0 -92.9185v46.4593c0 10.2635 -8.3202 18.5837 -18.5837 18.5837H35.0815c-10.2635 0 -18.5837 -8.3202 -18.5837 -18.5837v-46.4593c0 -10.2638 8.3199 -18.5841 18.5837 -18.5837h65.5424L82.377 47.5209C77.4156 24.3862 95.0474 2.5664 118.7082 2.56h18.5837c23.6655 -0.0011 41.3051 21.8215 36.3427 44.9609l-18.2585 85.125h65.5424c10.2632 0.0005 18.5837 8.3206 18.5837 18.5837Zm-119.8765 -18.5837h16.7486l19.0831 -89.0275c2.4764 -11.5653 -6.3381 -22.4707 -18.1655 -22.4747h-18.5837c-11.8323 -0.0035 -20.6546 10.9047 -18.1772 22.4747Zm101.2928 65.043v-46.4593H35.0815v46.4593h185.837Z" stroke-width="1"></path>
</svg>