<svg xmlns="http://www.w3.org/2000/svg" fill="none" viewBox="0 0 24 24" id="Archive--Streamline-Solar">
  <desc>
    Archive Streamline Icon: https://streamlinehq.com
  </desc>
  <g id="Bold Duotone/Notes/Archive">
    <path id="Vector" fill="#737374" d="M2 5c0 -0.94281 0 -1.41421 0.29289 -1.70711C2.58579 3 3.05719 3 4 3h16c0.9428 0 1.4142 0 1.7071 0.29289C22 3.58579 22 4.05719 22 5c0 0.94281 0 1.41421 -0.2929 1.70711C21.4142 7 20.9428 7 20 7H4c-0.94281 0 -1.41421 0 -1.70711 -0.29289C2 6.41421 2 5.94281 2 5Z" stroke-width="1"></path>
    <path id="Vector_2" fill="#AAB7B8" fill-rule="evenodd" d="M11.5 21h1c3.7712 0 5.6569 0 6.8284 -1.1716C20.5 18.6569 20.5 16.7713 20.5 13V6.99805c-0.1452 0.00203 -0.3491 0.002 -0.5 0.00197H4c-0.15095 0.00003 -0.3548 0.00006 -0.5 -0.00197V13c0 3.7713 0 5.6569 1.17157 6.8284C5.84315 21 7.72876 21 11.5 21Zm-2.42388 -9.8827C9 11.3011 9 11.5341 9 12c0 0.4659 0 0.6989 0.07612 0.8827 0.10149 0.245 0.29617 0.4397 0.5412 0.5412 0.18377 0.0761 0.41678 0.0761 0.88268 0.0761h3c0.4659 0 0.6989 0 0.8827 -0.0761 0.245 -0.1015 0.4397 -0.2962 0.5412 -0.5412C15 12.6989 15 12.4659 15 12c0 -0.4659 0 -0.6989 -0.0761 -0.8827 -0.1015 -0.245 -0.2962 -0.4397 -0.5412 -0.5412 -0.1838 -0.0761 -0.4168 -0.0761 -0.8827 -0.0761h-3c-0.4659 0 -0.69891 0 -0.88268 0.0761 -0.24503 0.1015 -0.43971 0.2962 -0.5412 0.5412Z" clip-rule="evenodd" stroke-width="1"></path>
  </g>
</svg>