<svg xmlns="http://www.w3.org/2000/svg" viewBox="0 0 384 384" id="Clipboard-Check--Streamline-Font-Awesome">
  <desc>
    Clipboard Check Streamline Icon: https://streamlinehq.com
  </desc>
<!--! Font Awesome Free 6.5.2 by @fontawesome - https://fontawesome.com License - https://fontawesome.com/license/free (Icons: CC BY 4.0, Fonts: SIL OFL 1.1, Code: MIT License) Copyright 2024 Fonticons, Inc.-->
  <path d="M192 3.84c-30.723 0 -56.889 19.6245 -66.5175 47.04H97.92c-25.9455 0 -47.04 21.0945 -47.04 47.04v235.2c0 25.9455 21.0945 47.04 47.04 47.04h188.16c25.9455 0 47.04 -21.0945 47.04 -47.04V97.92c0 -25.9455 -21.0945 -47.04 -47.04 -47.04h-27.5625C248.889 23.4645 222.723 3.84 192 3.84Zm0 47.04c18.1057 0 29.4218 19.6 20.3689 35.28 -4.2012 7.2768 -11.9664 11.7596 -20.3689 11.76 -18.1057 0.0008 -29.4216 -19.5987 -20.3694 -35.2791C175.8319 55.3633 183.5967 50.88 192 50.88Zm83.055 153.615 -94.08 94.08c-6.909 6.909 -18.081 6.909 -24.9165 0l-47.1135 -47.04c-6.909 -6.909 -6.909 -18.081 0 -24.9165s18.081 -6.909 24.9165 0l34.545 34.545 81.6585 -81.6585c6.909 -6.909 18.081 -6.909 24.9165 0s6.909 18.081 0 24.9165Z" fill="#1C2833" stroke-width="1"></path>
</svg>