<svg xmlns="http://www.w3.org/2000/svg" viewBox="0 0 384 384" id="Clipboard--Streamline-Font-Awesome">
  <desc>
    Clipboard Streamline Icon: https://streamlinehq.com
  </desc>
<!--! Font Awesome Free 6.5.2 by @fontawesome - https://fontawesome.com License - https://fontawesome.com/license/free (Icons: CC BY 4.0, Fonts: SIL OFL 1.1, Code: MIT License) Copyright 2024 Fonticons, Inc.-->
  <path d="M192 3.84c-30.723 0 -56.889 19.6245 -66.5175 47.04H97.92c-25.9455 0 -47.04 21.0945 -47.04 47.04v235.2c0 25.9455 21.0945 47.04 47.04 47.04h188.16c25.9455 0 47.04 -21.0945 47.04 -47.04V97.92c0 -25.9455 -21.0945 -47.04 -47.04 -47.04h-27.5625C248.889 23.4645 222.723 3.84 192 3.84Zm0 47.04c18.1057 0 29.4218 19.6 20.3689 35.28 -4.2012 7.2768 -11.9664 11.7596 -20.3689 11.76 -18.1057 0.0008 -29.4216 -19.5987 -20.3694 -35.2791C175.8319 55.3633 183.5967 50.88 192 50.88Zm-58.8 94.08h117.6c6.468 0 11.76 5.292 11.76 11.76s-5.292 11.76 -11.76 11.76H133.2c-6.468 0 -11.76 -5.292 -11.76 -11.76s5.292 -11.76 11.76 -11.76Z" fill="#1C2833" stroke-width="1"></path>
</svg>