<svg viewBox="0 0 24 24" fill="none" xmlns="http://www.w3.org/2000/svg" id="Document--Streamline-Solar">
  <desc>
    Document Streamline Icon: https://streamlinehq.com
  </desc>
  <path fill-rule="evenodd" clip-rule="evenodd" d="M4.17157 3.17157C3 4.34315 3 6.22876 3 10v4c0 3.7712 0 5.6569 1.17157 6.8284C5.34315 22 7.22876 22 11 22h2c3.7712 0 5.6569 0 6.8284 -1.1716C21 19.6569 21 17.7712 21 14v-4c0 -3.77124 0 -5.65685 -1.1716 -6.82843C18.6569 2 16.7712 2 13 2h-2C7.22876 2 5.34315 2 4.17157 3.17157ZM8 9.25c-0.41421 0 -0.75 0.33579 -0.75 0.75 0 0.4142 0.33579 0.75 0.75 0.75h8c0.4142 0 0.75 -0.3358 0.75 -0.75 0 -0.41421 -0.3358 -0.75 -0.75 -0.75H8Zm0 4c-0.41421 0 -0.75 0.3358 -0.75 0.75s0.33579 0.75 0.75 0.75h5c0.4142 0 0.75 -0.3358 0.75 -0.75s-0.3358 -0.75 -0.75 -0.75H8Z" fill="#1C2833" stroke-width="1"></path>
</svg>