<svg viewBox="0 0 24 24" fill="none" xmlns="http://www.w3.org/2000/svg" id="Document-Text--Streamline-Solar-Broken">
  <desc>
    Document Text Streamline Icon: https://streamlinehq.com
  </desc>
  <path d="M8 12h1m7 0h-4" stroke="#AAB7B8" stroke-linecap="round" stroke-width="1"></path>
  <path d="M16 8h-1m-3 0H8" stroke="#AAB7B8" stroke-linecap="round" stroke-width="1"></path>
  <path d="M8 16h5" stroke="#AAB7B8" stroke-linecap="round" stroke-width="1"></path>
  <path d="M3 14v-4c0 -3.77124 0 -5.65685 1.17157 -6.82843C5.34315 2 7.22876 2 11 2h2c3.7712 0 5.6569 0 6.8284 1.17157 0.6532 0.65319 0.9422 1.52832 1.0701 2.82843M21 10v4c0 3.7712 0 5.6569 -1.1716 6.8284C18.6569 22 16.7712 22 13 22h-2c-3.77124 0 -5.65685 0 -6.82843 -1.1716 -0.65318 -0.6532 -0.9422 -1.5283 -1.07008 -2.8284" stroke="#AAB7B8" stroke-linecap="round" stroke-width="1"></path>
</svg>