<svg xmlns="http://www.w3.org/2000/svg" viewBox="0 0 24 24" fill="#3498DB" aria-hidden="true" id="Pencil-Square--Streamline-Heroicons">
  <desc>
    Pencil Square Streamline Icon: https://streamlinehq.com
  </desc>
  <path d="M21.731 2.269a2.625 2.625 0 0 0 -3.712 0l-1.157 1.157 3.712 3.712 1.157 -1.157a2.625 2.625 0 0 0 0 -3.712Zm-2.218 5.93 -3.712 -3.712 -8.4 8.4a5.25 5.25 0 0 0 -1.32 2.214l-0.8 2.685a0.75 0.75 0 0 0 0.933 0.933l2.685 -0.8a5.25 5.25 0 0 0 2.214 -1.32l8.4 -8.4Z" stroke-width="1"></path>
  <path d="M5.25 5.25a3 3 0 0 0 -3 3v10.5a3 3 0 0 0 3 3h10.5a3 3 0 0 0 3 -3V13.5a0.75 0.75 0 0 0 -1.5 0v5.25a1.5 1.5 0 0 1 -1.5 1.5H5.25a1.5 1.5 0 0 1 -1.5 -1.5V8.25a1.5 1.5 0 0 1 1.5 -1.5h5.25a0.75 0.75 0 0 0 0 -1.5H5.25Z" stroke-width="1"></path>
</svg>