<svg xmlns="http://www.w3.org/2000/svg" fill="none" viewBox="0 0 48 48" id="Folder--Streamline-Rounded-Material">
  <desc>
    Folder Streamline Icon: https://streamlinehq.com
  </desc>
  <path fill="#AAB7B8" d="M7 40c-0.8 0 -1.5 -0.3083 -2.1 -0.925C4.3 38.4583 4 37.7667 4 37V11c0 -0.7667 0.3 -1.45833 0.9 -2.075C5.5 8.30833 6.2 8 7 8h12.8c0.4147 0 0.81 0.08333 1.186 0.25 0.376 0.16667 0.6988 0.38483 0.9685 0.6545L24.05 11H41c0.7667 0 1.4583 0.3083 2.075 0.925 0.6167 0.6167 0.925 1.3083 0.925 2.075v23c0 0.7667 -0.3083 1.4583 -0.925 2.075 -0.6167 0.6167 -1.3083 0.925 -2.075 0.925H7Zm0 -3h34V14H22.8l-3 -3H7v26Z" stroke-width="1"></path>
</svg>