<svg xmlns="http://www.w3.org/2000/svg" viewBox="0 0 24 24" fill="none" stroke="#AAB7B8" stroke-linecap="round" stroke-linejoin="round" id="Adjustments--Streamline-Tabler">
  <desc>
    Adjustments Streamline Icon: https://streamlinehq.com
  </desc>
  <path d="M4 10a2 2 0 1 0 4 0 2 2 0 0 0 -4 0" stroke-width="1"></path>
  <path d="M6 4v4" stroke-width="1"></path>
  <path d="M6 12v8" stroke-width="1"></path>
  <path d="M10 16a2 2 0 1 0 4 0 2 2 0 0 0 -4 0" stroke-width="1"></path>
  <path d="M12 4v10" stroke-width="1"></path>
  <path d="M12 18v2" stroke-width="1"></path>
  <path d="M16 7a2 2 0 1 0 4 0 2 2 0 0 0 -4 0" stroke-width="1"></path>
  <path d="M18 4v1" stroke-width="1"></path>
  <path d="M18 9v11" stroke-width="1"></path>
</svg>