<svg xmlns="http://www.w3.org/2000/svg" viewBox="0 0 512 512" id="Ruler--Streamline-Font-Awesome">
  <desc>
    Ruler Streamline Icon: https://streamlinehq.com
  </desc>
<!--! Font Awesome Free 6.5.2 by @fontawesome - https://fontawesome.com License - https://fontawesome.com/license/free (Icons: CC BY 4.0, Fonts: SIL OFL 1.1, Code: MIT License) Copyright 2024 Fonticons, Inc.-->
  <path d="M177.9 494.1c-18.7 18.7 -49.1 18.7 -67.9 0l-92.1 -92.2c-18.7 -18.7 -18.7 -49.1 0 -67.9l50.7 -50.7 48 48c6.2 6.2 16.4 6.2 22.6 0s6.2 -16.4 0 -22.6l-48 -48 41.4 -41.4 48 48c6.2 6.2 16.4 6.2 22.6 0s6.2 -16.4 0 -22.6l-48 -48 41.4 -41.4 48 48c6.2 6.2 16.4 6.2 22.6 0s6.2 -16.4 0 -22.6l-48 -48 41.4 -41.4 48 48c6.2 6.2 16.4 6.2 22.6 0s6.2 -16.4 0 -22.6l-48 -48L333.9 18C352.6 -0.7 383 -0.7 401.8 18l92.1 92.1c18.7 18.7 18.7 49.1 0 67.9l-316 316.1z" fill="#AAB7B8" stroke-width="1"></path>
</svg>