<svg xmlns="http://www.w3.org/2000/svg" fill="none" viewBox="0 0 24 24" id="User-Circle--Streamline-Solar">
  <desc>
    User Circle Streamline Icon: https://streamlinehq.com
  </desc>
  <g id="Line Duotone/Users/User Circle">
    <path id="Vector" stroke="#737373" d="M12 12c1.6569 0 3 -1.3431 3 -3 0 -1.65685 -1.3431 -3 -3 -3S9 7.34315 9 9c0 1.6569 1.3431 3 3 3Z" stroke-width="1"></path>
    <path id="Vector_2" stroke="#737373" stroke-linecap="round" d="M17.9691 20c-0.1591 -2.8915 -1.0444 -5 -5.9692 -5 -4.92469 0 -5.80999 2.1085 -5.96914 5" stroke-width="1"></path>
    <path id="Vector_3" stroke="#3498DB" d="M12 22c5.5228 0 10 -4.4772 10 -10 0 -5.52285 -4.4772 -10 -10 -10C6.47715 2 2 6.47715 2 12c0 5.5228 4.47715 10 10 10Z" stroke-width="1"></path>
  </g>
</svg>