<svg xmlns="http://www.w3.org/2000/svg" viewBox="0 0 24 24" fill="#5499C7" aria-hidden="true" id="Academic-Cap--Streamline-Heroicons">
  <desc>
    Academic Cap Streamline Icon: https://streamlinehq.com
  </desc>
  <path d="M11.7 2.805a0.75 0.75 0 0 1 0.6 0A60.65 60.65 0 0 1 22.83 8.72a0.75 0.75 0 0 1 -0.231 1.337 49.948 49.948 0 0 0 -9.902 3.912l-0.003 0.002c-0.114 0.06 -0.227 0.119 -0.34 0.18a0.75 0.75 0 0 1 -0.707 0A50.88 50.88 0 0 0 7.5 12.173v-0.224c0 -0.131 0.067 -0.248 0.172 -0.311a54.615 54.615 0 0 1 4.653 -2.52 0.75 0.75 0 0 0 -0.65 -1.352 56.123 56.123 0 0 0 -4.78 2.589 1.858 1.858 0 0 0 -0.859 1.228 49.803 49.803 0 0 0 -4.634 -1.527 0.75 0.75 0 0 1 -0.231 -1.337A60.653 60.653 0 0 1 11.7 2.805Z" stroke-width="1"></path>
  <path d="M13.06 15.473a48.45 48.45 0 0 1 7.666 -3.282c0.134 1.414 0.22 2.843 0.255 4.284a0.75 0.75 0 0 1 -0.46 0.711 47.87 47.87 0 0 0 -8.105 4.342 0.75 0.75 0 0 1 -0.832 0 47.87 47.87 0 0 0 -8.104 -4.342 0.75 0.75 0 0 1 -0.461 -0.71c0.035 -1.442 0.121 -2.87 0.255 -4.286 0.921 0.304 1.83 0.634 2.726 0.99v1.27a1.5 1.5 0 0 0 -0.14 2.508c-0.09 0.38 -0.222 0.753 -0.397 1.11 0.452 0.213 0.901 0.434 1.346 0.66a6.727 6.727 0 0 0 0.551 -1.607 1.5 1.5 0 0 0 0.14 -2.67v-0.645a48.549 48.549 0 0 1 3.44 1.667 2.25 2.25 0 0 0 2.12 0Z" stroke-width="1"></path>
  <path d="M4.462 19.462c0.42 -0.419 0.753 -0.89 1 -1.395 0.453 0.214 0.902 0.435 1.347 0.662a6.742 6.742 0 0 1 -1.286 1.794 0.75 0.75 0 0 1 -1.06 -1.06Z" stroke-width="1"></path>
</svg>