<svg id="Graduation--Streamline-Atlas" xmlns="http://www.w3.org/2000/svg" viewBox="0 0 24 24">
  <desc>
    Graduation Streamline Icon: https://streamlinehq.com
  </desc>
  <defs></defs>
  <path d="M12 12a9.55 9.55 0 0 1 9.55 9.55v1H2.45v-1A9.55 9.55 0 0 1 12 12Z" fill="none" stroke="#1C2833" stroke-miterlimit="10" stroke-width="1"></path>
  <path d="M7.23 1.5h9.55v5.73A4.77 4.77 0 0 1 12 12a4.77 4.77 0 0 1 -4.77 -4.77V1.5Z" fill="none" stroke="#1C2833" stroke-miterlimit="10" stroke-width="1"></path>
  <path d="m7.23 4.36 4.77 0.96 4.77 -1.25" fill="none" stroke="#1C2833" stroke-miterlimit="10" stroke-width="1"></path>
  <path d="m3.41 1.5 17.18 0" fill="none" stroke="#1C2833" stroke-miterlimit="10" stroke-width="1"></path>
  <path d="m16.77 12.95 -3.42 3.43" fill="none" stroke="#1C2833" stroke-miterlimit="10" stroke-width="1"></path>
  <path d="m10.65 16.38 -3.42 -3.43" fill="none" stroke="#1C2833" stroke-miterlimit="10" stroke-width="1"></path>
  <path d="M10.09 17.73a1.91 1.91 0 1 0 3.82 0 1.91 1.91 0 1 0 -3.82 0" fill="none" stroke="#1C2833" stroke-miterlimit="10" stroke-width="1"></path>
</svg>