<svg xmlns="http://www.w3.org/2000/svg" fill="none" viewBox="0 0 48 48" id="Warning--Streamline-Outlined-Material">
  <desc>
    Warning Streamline Icon: https://streamlinehq.com
  </desc>
  <path fill="#E74C3C" d="M2 42 24 4l22 38H2Zm5.2 -3h33.6L24 10 7.2 39Zm17.009 -2.85c0.4273 0 0.7827 -0.1447 1.066 -0.434 0.2833 -0.289 0.425 -0.6473 0.425 -1.075 0 -0.4273 -0.1447 -0.7827 -0.434 -1.066 -0.289 -0.2833 -0.6473 -0.425 -1.075 -0.425 -0.4273 0 -0.7827 0.1447 -1.066 0.434 -0.2833 0.289 -0.425 0.6473 -0.425 1.075 0 0.4273 0.1447 0.7827 0.434 1.066 0.289 0.2833 0.6473 0.425 1.075 0.425ZM22.7 30.6h3V19.4h-3v11.2Z" stroke-width="1"></path>
</svg>