<svg xmlns="http://www.w3.org/2000/svg" viewBox="0 0 24 24" fill="#27AE60" id="Circle-Number-3--Streamline-Tabler-Filled">
  <desc>
    Circle Number 3 Streamline Icon: https://streamlinehq.com
  </desc>
  <path d="M12 2c5.523 0 10 4.477 10 10s-4.477 10 -10 10S2 17.523 2 12 6.477 2 12 2zm1 5h-2l-0.15 0.005A2 2 0 0 0 9 9a1 1 0 0 0 1.974 0.23l0.02 -0.113L11 9h2v2h-2l-0.133 0.007c-1.111 0.12 -1.154 1.73 -0.128 1.965l0.128 0.021L11 13h2v2h-2l-0.007 -0.117A1 1 0 0 0 9 15a2 2 0 0 0 1.85 1.995L11 17h2l0.15 -0.005a2 2 0 0 0 1.844 -1.838L15 15v-2l-0.005 -0.15a1.988 1.988 0 0 0 -0.17 -0.667l-0.075 -0.152 -0.019 -0.032 0.02 -0.03a2.01 2.01 0 0 0 0.242 -0.795L15 11V9l-0.005 -0.15a2 2 0 0 0 -1.838 -1.844L13 7z" stroke-width="1"></path>
</svg>