<svg xmlns="http://www.w3.org/2000/svg" viewBox="0 0 24 24" fill="none" stroke="#AAB7B8" stroke-linecap="round" stroke-linejoin="round" id="Timeline--Streamline-Tabler">
  <desc>
    Timeline Streamline Icon: https://streamlinehq.com
  </desc>
  <path d="m4 16 6 -7 5 5 5 -6" stroke-width="1"></path>
  <path d="M14 14a1 1 0 1 0 2 0 1 1 0 1 0 -2 0" stroke-width="1"></path>
  <path d="M9 9a1 1 0 1 0 2 0 1 1 0 1 0 -2 0" stroke-width="1"></path>
  <path d="M3 16a1 1 0 1 0 2 0 1 1 0 1 0 -2 0" stroke-width="1"></path>
  <path d="M19 8a1 1 0 1 0 2 0 1 1 0 1 0 -2 0" stroke-width="1"></path>
</svg>