<svg viewBox="0 0 15 15" fill="none" xmlns="http://www.w3.org/2000/svg" id="Chat-Bubble--Streamline-Radix">
  <desc>
    Chat Bubble Streamline Icon: https://streamlinehq.com
  </desc>
  <path fill-rule="evenodd" clip-rule="evenodd" d="m12.5 3 -10 0.00002c-0.82843 0 -1.5 0.67158 -1.5 1.5v5.00001C1 10.3285 1.67157 11 2.5 11h5.00003c0.13261 0 0.25979 0.0527 0.35355 0.1465L10 13.2929V11.5c0 -0.2761 0.2239 -0.5 0.5 -0.5h2c0.8284 0 1.5 -0.6715 1.5 -1.49997V4.5c0 -0.82843 -0.6716 -1.5 -1.5 -1.5ZM2.49999 2.00002 12.5 2C13.8807 2 15 3.11929 15 4.5v5.00003C15 10.8807 13.8807 12 12.5 12H11v2.5c0 0.2022 -0.1218 0.3845 -0.3087 0.4619 -0.1868 0.0774 -0.4019 0.0346 -0.5449 -0.1083L7.29292 12H2.5C1.11929 12 0 10.8807 0 9.50003V4.50002c0 -1.38071 1.11928 -2.49999 2.49999 -2.5Z" fill="#3498DB" stroke-width="1"></path>
</svg>