<svg xmlns="http://www.w3.org/2000/svg" viewBox="0 0 24 24" fill="#E74C3C" aria-hidden="true" id="Bell--Streamline-Heroicons">
  <desc>
    Bell Streamline Icon: https://streamlinehq.com
  </desc>
  <path fill-rule="evenodd" d="M5.25 9a6.75 6.75 0 0 1 13.5 0v0.75c0 2.123 0.8 4.057 2.118 5.52a0.75 0.75 0 0 1 -0.297 1.206c-1.544 0.57 -3.16 0.99 -4.831 1.243a3.75 3.75 0 1 1 -7.48 0 24.585 24.585 0 0 1 -4.831 -1.244 0.75 0.75 0 0 1 -0.298 -1.205A8.217 8.217 0 0 0 5.25 9.75V9Zm4.502 8.9a2.25 2.25 0 1 0 4.496 0 25.057 25.057 0 0 1 -4.496 0Z" clip-rule="evenodd" stroke-width="1"></path>
</svg>