<svg xmlns="http://www.w3.org/2000/svg" viewBox="0 0 576 576" id="Eye--Streamline-Font-Awesome">
  <desc>
    Eye Streamline Icon: https://streamlinehq.com
  </desc>
<!--! Font Awesome Free 6.5.2 by @fontawesome - https://fontawesome.com License - https://fontawesome.com/license/free (Icons: CC BY 4.0, Fonts: SIL OFL 1.1, Code: MIT License) Copyright 2024 Fonticons, Inc.-->
  <path d="M287.951 68.4991c-79.1771 0 -142.5776 36.0608 -188.7316 78.9811 -45.86 42.5283 -76.5314 93.4839 -91.0341 128.4668 -3.2337 7.7414 -3.2337 16.3646 0 24.106 14.5027 34.9829 45.1741 85.9385 91.0341 128.4668 46.154 42.9203 109.5545 78.9811 188.7316 78.9811s142.5776 -36.0608 188.7316 -78.9811c45.86 -42.6263 76.5314 -93.4839 91.1321 -128.4668 3.2337 -7.7414 3.2337 -16.3646 0 -24.106 -14.6007 -34.9829 -45.2721 -85.9385 -91.1321 -128.4668 -46.154 -42.9203 -109.5545 -78.9811 -188.7316 -78.9811ZM146.8433 288c0 -108.6248 117.5897 -176.5153 211.6616 -122.2029 43.6589 25.2065 70.5539 71.79 70.5539 122.2029 0 108.6248 -117.5898 176.5153 -211.6617 122.2029 -43.6589 -25.2065 -70.5538 -71.79 -70.5538 -122.2029Zm141.1077 -62.7146c0 34.591 -28.1236 62.7146 -62.7146 62.7146 -6.9574 0 -13.6208 -1.1759 -19.8922 -3.2337 -5.3896 -1.7639 -11.661 1.5678 -11.465 7.2513 0.2939 6.7615 1.2739 13.5229 3.1357 20.2843 13.4248 50.1716 65.0664 79.961 115.238 66.5362s79.9611 -65.0663 66.5362 -115.238c-10.877 -40.6665 -46.8399 -68.0061 -86.8204 -69.6719 -5.6835 -0.196 -9.0153 5.9774 -7.2514 11.465 2.0578 6.2714 3.2337 12.9348 3.2337 19.8922Z" fill="#AAB7B8" stroke-width="1"></path>
</svg>